<?xml version="1.0" encoding="UTF-8"?>
<svg version="1.1" xmlns="http://www.w3.org/2000/svg" width="512" height="512">
<path d="M0 0 C6.38678041 3.99000598 10.40236134 9.71625946 12.7421875 16.82421875 C15.04751107 28.80413057 14.76875831 41.6364585 10.1171875 52.9765625 C9.20877158 55.38958119 9.20877158 55.38958119 10.1171875 57.5546875 C11.50673035 59.53622494 12.9994113 61.20378728 14.6875 62.9375 C23.25972596 72.51190686 26.83296685 83.99126599 26.8125 96.625 C26.81233887 97.55175537 26.81217773 98.47851074 26.81201172 99.43334961 C26.6635974 108.37023499 24.42164728 115.50569031 20.4375 123.4375 C20.98494873 123.59968018 21.53239746 123.76186035 22.09643555 123.92895508 C27.88595771 125.73783361 32.99262056 128.119797 38.25 131.125 C39.42502075 131.78918945 39.42502075 131.78918945 40.6237793 132.46679688 C51.88075044 138.89736911 64.18595798 146.18595798 73.4375 155.4375 C75.28979545 155.57086527 77.14468879 155.66872855 79 155.75 C86.46356197 156.34318939 91.55390766 158.14941125 96.75 163.625 C100.70069421 168.66294248 102.68147641 173.91641039 102.0625 180.3125 C101.85502202 185.59281471 105.50209874 188.57781926 108.8046875 192.3359375 C117.59203457 202.42801317 124.22775777 214.64927269 130.4375 226.4375 C130.77491211 227.07284668 131.11232422 227.70819336 131.45996094 228.36279297 C145.29900086 254.83248836 154.86370409 287.37073847 154.4375 317.4375 C155.0975 317.1075 155.7575 316.7775 156.4375 316.4375 C163.81103257 315.66863592 170.17821062 316.27275882 176.4375 320.4375 C181.05902017 324.62265346 184.03694571 329.04063972 184.7800293 335.34228516 C184.91990241 345.65889303 182.85242718 354.88567362 180.25 364.8125 C180.02986237 365.67077393 179.80972473 366.52904785 179.58291626 367.41333008 C171.85916278 397.47073296 161.98219528 426.70015295 149.80029297 455.23632812 C148.62486427 457.9973853 147.47822449 460.76725413 146.34765625 463.546875 C138.07800164 483.63711144 125.31754873 498.25982786 105.27734375 506.78125 C99.05453916 509.12631768 93.4097746 510.5605054 86.73048973 510.56892776 C85.01190178 510.57468948 85.01190178 510.57468948 83.25859487 510.5805676 C81.3773496 510.57926787 81.3773496 510.57926787 79.45809937 510.57794189 C78.10868833 510.58052666 76.75927805 510.58354014 75.40986884 510.5869453 C71.70268227 510.59500553 67.99551507 510.59680432 64.28832078 510.59754276 C60.28951897 510.59939504 56.29072717 510.6069433 52.29193115 510.61367798 C43.54796724 510.62725531 34.80400792 510.6332852 26.06003523 510.63768864 C20.59860226 510.64045231 15.13717106 510.64468991 9.67573929 510.64919281 C-5.44980318 510.66138513 -20.57534422 510.67168423 -35.70089149 510.6750679 C-36.6688252 510.67528747 -37.6367589 510.67550703 -38.63402393 510.67573325 C-39.60425631 510.67595153 -40.5744887 510.67616981 -41.57412207 510.6763947 C-43.54013737 510.67683816 -45.50615267 510.67728473 -47.47216797 510.67773438 C-48.93498105 510.67806652 -48.93498105 510.67806652 -50.42734592 510.67840537 C-66.22380881 510.6823521 -82.02022554 510.69980245 -97.81667061 510.7230939 C-114.04047189 510.74682206 -130.26425003 510.75927043 -146.48806894 510.76043582 C-155.5947492 510.7613518 -164.70136932 510.76708472 -173.80803299 510.78525543 C-181.56379155 510.80067624 -189.31947138 510.80576524 -197.07524236 510.79751733 C-201.03001956 510.79361771 -204.98463832 510.79450659 -208.9393959 510.80857468 C-212.56545964 510.82135514 -216.19124656 510.82008006 -219.81731014 510.80798396 C-221.73859603 510.80511598 -223.6598869 510.81693132 -225.58113444 510.82940602 C-236.10275122 510.76970437 -245.25747638 508.58289856 -254.625 503.8125 C-255.30618896 503.46767578 -255.98737793 503.12285156 -256.68920898 502.76757812 C-262.83829719 499.5214773 -267.76917069 495.47983343 -272.5625 490.4375 C-273.20574219 489.77878906 -273.84898437 489.12007813 -274.51171875 488.44140625 C-283.30597373 478.96039817 -287.97879371 467.35245179 -292.8125 455.5625 C-293.13953918 454.77060272 -293.46657837 453.97870544 -293.80352783 453.16281128 C-299.88501343 438.42215269 -305.52387007 423.57079437 -310.5625 408.4375 C-310.94599609 407.28830078 -311.32949219 406.13910156 -311.72460938 404.95507812 C-316.16968429 391.48583101 -320.13250344 377.90368172 -323.5848999 364.14828491 C-323.93809823 362.74341452 -324.29602159 361.33972144 -324.65924072 359.93740845 C-327.26083881 349.82139632 -330.2317517 337.96910181 -326 327.9375 C-323.01721053 323.02591028 -318.91541785 319.61395893 -313.8125 317.0625 C-308.82857266 316.10405243 -302.22979971 315.10385015 -297.5625 317.4375 C-297.53671875 316.46554687 -297.5109375 315.49359375 -297.484375 314.4921875 C-296.07459726 276.26787927 -283.1878483 235.66504353 -260.609375 204.59375 C-259.24664259 201.78692803 -259.71961194 200.38522717 -260.5625 197.4375 C-261.185436 191.08355279 -259.71597353 185.91874647 -256.5625 180.4375 C-253.01093294 176.40398751 -248.87899441 172.703332 -243.5625 171.4375 C-242.84449219 171.43363281 -242.12648438 171.42976562 -241.38671875 171.42578125 C-232.95888243 171.25538954 -229.28078392 167.26435893 -223.5625 161.4375 C-210.0525787 148.40328015 -189.35891878 130.3359378 -170.5625 126.4375 C-170.59730469 125.90125 -170.63210937 125.365 -170.66796875 124.8125 C-171.19049594 109.68409376 -167.56252591 95.31016548 -157.75 83.5625 C-153.17396499 78.72246297 -147.92840099 74.559467 -141.5625 72.4375 C-141.53671875 71.42171875 -141.5109375 70.4059375 -141.484375 69.359375 C-140.97792908 55.38180874 -138.28773611 44.08814785 -128.5625 33.4375 C-111.72454362 18.44208093 -86.92220325 16.82876452 -65.55371094 14.08300781 C-44.89997756 11.62565026 -44.89997756 11.62565026 -26.78125 2.0234375 C-19.6579942 -3.06818548 -7.99742176 -3.61123889 0 0 Z " fill="#FD889E" transform="translate(327.5625,1.5625)"/>
<path d="M0 0 C6.38678041 3.99000598 10.40236134 9.71625946 12.7421875 16.82421875 C15.04751107 28.80413057 14.76875831 41.6364585 10.1171875 52.9765625 C9.20877158 55.38958119 9.20877158 55.38958119 10.1171875 57.5546875 C11.50673035 59.53622494 12.9994113 61.20378728 14.6875 62.9375 C23.25972596 72.51190686 26.83296685 83.99126599 26.8125 96.625 C26.81233887 97.55175537 26.81217773 98.47851074 26.81201172 99.43334961 C26.6635974 108.37023499 24.42164728 115.50569031 20.4375 123.4375 C20.98494873 123.59968018 21.53239746 123.76186035 22.09643555 123.92895508 C27.88595771 125.73783361 32.99262056 128.119797 38.25 131.125 C39.42502075 131.78918945 39.42502075 131.78918945 40.6237793 132.46679688 C51.88075044 138.89736911 64.18595798 146.18595798 73.4375 155.4375 C75.28979545 155.57086527 77.14468879 155.66872855 79 155.75 C86.46356197 156.34318939 91.55390766 158.14941125 96.75 163.625 C100.70069421 168.66294248 102.68147641 173.91641039 102.0625 180.3125 C101.85502202 185.59281471 105.50209874 188.57781926 108.8046875 192.3359375 C117.59203457 202.42801317 124.22775777 214.64927269 130.4375 226.4375 C130.77491211 227.07284668 131.11232422 227.70819336 131.45996094 228.36279297 C145.29900086 254.83248836 154.86370409 287.37073847 154.4375 317.4375 C155.0975 317.1075 155.7575 316.7775 156.4375 316.4375 C163.81103257 315.66863592 170.17821062 316.27275882 176.4375 320.4375 C181.05902017 324.62265346 184.03694571 329.04063972 184.7800293 335.34228516 C184.91990241 345.65889303 182.85242718 354.88567362 180.25 364.8125 C180.02986237 365.67077393 179.80972473 366.52904785 179.58291626 367.41333008 C171.85916278 397.47073296 161.98219528 426.70015295 149.80029297 455.23632812 C148.62486427 457.9973853 147.47822449 460.76725413 146.34765625 463.546875 C138.07800164 483.63711144 125.31754873 498.25982786 105.27734375 506.78125 C99.05453916 509.12631768 93.4097746 510.5605054 86.73048973 510.56892776 C85.01190178 510.57468948 85.01190178 510.57468948 83.25859487 510.5805676 C81.3773496 510.57926787 81.3773496 510.57926787 79.45809937 510.57794189 C78.10868833 510.58052666 76.75927805 510.58354014 75.40986884 510.5869453 C71.70268227 510.59500553 67.99551507 510.59680432 64.28832078 510.59754276 C60.28951897 510.59939504 56.29072717 510.6069433 52.29193115 510.61367798 C43.54796724 510.62725531 34.80400792 510.6332852 26.06003523 510.63768864 C20.59860226 510.64045231 15.13717106 510.64468991 9.67573929 510.64919281 C-5.44980318 510.66138513 -20.57534422 510.67168423 -35.70089149 510.6750679 C-36.6688252 510.67528747 -37.6367589 510.67550703 -38.63402393 510.67573325 C-39.60425631 510.67595153 -40.5744887 510.67616981 -41.57412207 510.6763947 C-43.54013737 510.67683816 -45.50615267 510.67728473 -47.47216797 510.67773438 C-48.93498105 510.67806652 -48.93498105 510.67806652 -50.42734592 510.67840537 C-66.22380881 510.6823521 -82.02022554 510.69980245 -97.81667061 510.7230939 C-114.04047189 510.74682206 -130.26425003 510.75927043 -146.48806894 510.76043582 C-155.5947492 510.7613518 -164.70136932 510.76708472 -173.80803299 510.78525543 C-181.56379155 510.80067624 -189.31947138 510.80576524 -197.07524236 510.79751733 C-201.03001956 510.79361771 -204.98463832 510.79450659 -208.9393959 510.80857468 C-212.56545964 510.82135514 -216.19124656 510.82008006 -219.81731014 510.80798396 C-221.73859603 510.80511598 -223.6598869 510.81693132 -225.58113444 510.82940602 C-236.10275122 510.76970437 -245.25747638 508.58289856 -254.625 503.8125 C-255.30618896 503.46767578 -255.98737793 503.12285156 -256.68920898 502.76757812 C-262.83829719 499.5214773 -267.76917069 495.47983343 -272.5625 490.4375 C-273.20574219 489.77878906 -273.84898437 489.12007813 -274.51171875 488.44140625 C-283.30597373 478.96039817 -287.97879371 467.35245179 -292.8125 455.5625 C-293.13953918 454.77060272 -293.46657837 453.97870544 -293.80352783 453.16281128 C-299.88501343 438.42215269 -305.52387007 423.57079437 -310.5625 408.4375 C-310.94599609 407.28830078 -311.32949219 406.13910156 -311.72460938 404.95507812 C-316.16968429 391.48583101 -320.13250344 377.90368172 -323.5848999 364.14828491 C-323.93809823 362.74341452 -324.29602159 361.33972144 -324.65924072 359.93740845 C-327.26083881 349.82139632 -330.2317517 337.96910181 -326 327.9375 C-323.01721053 323.02591028 -318.91541785 319.61395893 -313.8125 317.0625 C-308.82857266 316.10405243 -302.22979971 315.10385015 -297.5625 317.4375 C-297.53671875 316.46554687 -297.5109375 315.49359375 -297.484375 314.4921875 C-296.07459726 276.26787927 -283.1878483 235.66504353 -260.609375 204.59375 C-259.24664259 201.78692803 -259.71961194 200.38522717 -260.5625 197.4375 C-261.185436 191.08355279 -259.71597353 185.91874647 -256.5625 180.4375 C-253.01093294 176.40398751 -248.87899441 172.703332 -243.5625 171.4375 C-242.84449219 171.43363281 -242.12648438 171.42976562 -241.38671875 171.42578125 C-232.95888243 171.25538954 -229.28078392 167.26435893 -223.5625 161.4375 C-210.0525787 148.40328015 -189.35891878 130.3359378 -170.5625 126.4375 C-170.59730469 125.90125 -170.63210937 125.365 -170.66796875 124.8125 C-171.19049594 109.68409376 -167.56252591 95.31016548 -157.75 83.5625 C-153.17396499 78.72246297 -147.92840099 74.559467 -141.5625 72.4375 C-141.53671875 71.42171875 -141.5109375 70.4059375 -141.484375 69.359375 C-140.97792908 55.38180874 -138.28773611 44.08814785 -128.5625 33.4375 C-111.72454362 18.44208093 -86.92220325 16.82876452 -65.55371094 14.08300781 C-44.89997756 11.62565026 -44.89997756 11.62565026 -26.78125 2.0234375 C-19.6579942 -3.06818548 -7.99742176 -3.61123889 0 0 Z M-207.5625 168.4375 C-208.49449219 169.23542969 -209.42648438 170.03335938 -210.38671875 170.85546875 C-216.02956554 175.36118167 -216.02956554 175.36118167 -219.5625 181.4375 C-218.56729648 183.09617253 -217.5680267 184.75268199 -216.5390625 186.390625 C-214.32846052 191.02404674 -214.90839555 196.03008598 -216.22265625 200.8671875 C-218.71026215 207.26388838 -222.66794399 210.97513556 -228.37890625 214.5859375 C-231.32847281 215.73621569 -233.84279152 215.66514947 -237 215.625 C-238.11246094 215.61855469 -239.22492188 215.61210937 -240.37109375 215.60546875 C-243.21350884 215.45586796 -245.79651547 215.08375807 -248.5625 214.4375 C-260.34762716 232.85721726 -269.51585744 252.40981635 -275.5625 273.4375 C-275.76955566 274.1500293 -275.97661133 274.86255859 -276.18994141 275.59667969 C-278.75884271 284.69063358 -280.14790579 293.88068745 -281.3125 303.25 C-281.44043945 304.27577148 -281.56837891 305.30154297 -281.70019531 306.35839844 C-282.29343727 311.5538611 -282.71753918 316.75054169 -282.9140625 321.9765625 C-282.95354004 322.93900879 -282.99301758 323.90145508 -283.03369141 324.89306641 C-282.77966923 327.6043996 -282.77966923 327.6043996 -280.52734375 329.47729492 C-277.95119553 331.15378036 -275.42210651 332.31492719 -272.5625 333.4375 C-271.77101563 333.77394531 -270.97953125 334.11039063 -270.1640625 334.45703125 C-260.11879391 338.11137315 -248.32159347 337.78167327 -238.5625 333.4375 C-234.45527252 331.26888389 -230.50508793 328.89055009 -226.5625 326.4375 C-212.34923953 317.69867652 -199.56545864 312.83597557 -182.625 316.5 C-173.31544431 319.11600971 -164.8953317 323.81238712 -156.875 329.125 C-146.79700842 335.65730403 -136.93108941 338.21599156 -124.94921875 335.94140625 C-123.46358514 335.57936108 -121.98020029 335.2078736 -120.5 334.82421875 C-117.64447995 334.25426616 -115.33141962 334.6270845 -112.5625 335.4375 C-110.5625 337.4375 -110.5625 337.4375 -110.25 340.875 C-110.5625 344.4375 -110.5625 344.4375 -111.74609375 346.0546875 C-120.30646048 352.57161185 -134.48208146 351.07236078 -144.5 349.875 C-154.95120715 347.91453578 -163.98312942 342.10616447 -172.46484375 335.94140625 C-180.04896801 330.50399873 -189.31132535 328.34655959 -198.5625 329.4375 C-207.77029093 331.08534237 -214.58981699 335.18560227 -222.16918945 340.35424805 C-236.36672463 349.86690166 -252.53172 352.47272891 -269.28515625 349.390625 C-278.75434782 346.63677191 -287.7835846 341.37920343 -295.765625 335.6640625 C-300.11009817 332.69848733 -303.22155701 331.86525611 -308.5625 332.4375 C-311.28732126 333.57751655 -311.28732126 333.57751655 -312.5625 336.4375 C-312.68072226 344.39837834 -310.61765286 352.12397183 -308.5625 359.75 C-308.25344727 360.91297607 -307.94439453 362.07595215 -307.62597656 363.27416992 C-291.18131365 434.20793977 -291.18131365 434.20793977 -249.5625 489.4375 C-238.32135923 495.66306234 -226.9840702 495.70392476 -214.5 495.5625 C-212.95117766 495.55245008 -211.40234901 495.54332779 -209.85351562 495.53515625 C-206.08968572 495.51330207 -202.32616377 495.47888343 -198.5625 495.4375 C-199.18359859 489.00882609 -200.20658422 482.81029163 -201.56640625 476.5 C-201.76553116 475.55793198 -201.96465607 474.61586395 -202.16981506 473.64524841 C-202.59696701 471.62447485 -203.02578024 469.60405186 -203.45611572 467.58395386 C-204.59719426 462.21628251 -205.71752965 456.84427668 -206.83984375 451.47265625 C-207.06776611 450.38267838 -207.29568848 449.2927005 -207.53051758 448.16969299 C-208.2085664 444.92577875 -208.88575979 441.68168748 -209.5625 438.4375 C-209.7727179 437.43031921 -209.98293579 436.42313843 -210.19952393 435.38543701 C-211.37261498 429.75332424 -212.52889388 424.11821229 -213.66134644 418.4777832 C-214.00690463 416.76837151 -214.35759657 415.05998802 -214.71389771 413.3527832 C-220.32676785 386.41315204 -220.32676785 386.41315204 -215.125 377.3125 C-211.12656435 372.35893452 -206.39318336 369.04922153 -200.04296875 368.03515625 C-193.08057445 367.7677832 -187.51065544 369.47206304 -181.75 373.3125 C-175.78794177 379.10421371 -174.39515068 386.60042426 -173.01171875 394.52734375 C-172.72512846 396.12085515 -172.43850613 397.71436079 -172.15185547 399.30786133 C-172.00472107 400.13524811 -171.85758667 400.96263489 -171.70599365 401.81509399 C-169.46377898 414.40267888 -167.13461115 426.95183063 -164.33666992 439.42944336 C-162.60371331 447.1619171 -161.03836404 454.92212612 -159.52490234 462.70043945 C-157.37278313 473.65470735 -154.93612261 484.51883598 -152.5625 495.4375 C-133.4225 495.4375 -114.2825 495.4375 -94.5625 495.4375 C-94.52511719 487.661875 -94.48773438 479.88625 -94.44921875 471.875 C-94.41893673 466.9439884 -94.38778723 462.01301279 -94.35351562 457.08203125 C-94.29922134 449.25831934 -94.24810982 441.43467864 -94.21606445 433.61083984 C-94.19002271 427.30188282 -94.1496134 420.99316531 -94.09931374 414.68435669 C-94.08265106 412.27950015 -94.07113307 409.87460219 -94.06488609 407.46969604 C-94.05523885 404.09673048 -94.02717062 400.72437687 -93.99487305 397.3515625 C-93.99630814 396.36109421 -93.99774323 395.37062592 -93.9992218 394.35014343 C-93.89162625 386.38535056 -92.504382 379.22301669 -86.5625 373.4375 C-81.11913616 369.32372607 -76.17826618 367.59110311 -69.3359375 367.96484375 C-63.44089731 368.96949144 -58.61948167 371.08785833 -54.640625 375.6328125 C-51.09583256 380.7474416 -49.45455392 384.82281426 -49.40428162 391.05657959 C-49.38959839 392.44054176 -49.38959839 392.44054176 -49.37461853 393.85246277 C-49.36886307 394.85731216 -49.3631076 395.86216156 -49.35717773 396.89746094 C-49.34727814 397.96118423 -49.33737854 399.02490753 -49.32717896 400.12086487 C-49.29558433 403.63784558 -49.27081446 407.1548398 -49.24609375 410.671875 C-49.22552247 413.10996858 -49.20452596 415.54805861 -49.18312073 417.98614502 C-49.12791804 424.40420658 -49.07850074 430.82230022 -49.03027344 437.24041748 C-48.97121474 444.94055188 -48.90499664 452.64062761 -48.83997345 460.3407135 C-48.74198661 472.03960651 -48.65311491 483.7385371 -48.5625 495.4375 C-29.4225 495.4375 -10.2825 495.4375 9.4375 495.4375 C11.4175 486.1975 13.3975 476.9575 15.4375 467.4375 C16.283125 463.580625 17.12875 459.72375 18 455.75 C21.24239638 440.82878098 24.3347557 425.88176041 26.9453125 410.8359375 C27.20638416 409.34617783 27.46753327 407.85643174 27.72875977 406.36669922 C28.23495453 403.47719878 28.72526124 400.5855952 29.20678711 397.69189453 C31.25115215 385.7615973 33.57416164 377.51637039 43.5625 370.125 C49.15484151 367.16506219 55.21430229 367.47424551 61.15625 369.25 C67.67238206 372.07627415 71.81514641 375.80076443 74.4375 382.4375 C76.48344815 396.45612343 72.11030234 411.06404851 69.3125 424.6875 C68.83208199 427.0882916 68.35290813 429.48933251 67.875 431.890625 C65.01103392 446.1888598 61.93753111 460.43624316 58.73876953 474.66308594 C58.51819885 475.6488562 58.29762817 476.63462646 58.07037354 477.65026855 C57.6658088 479.43200768 57.25061326 481.21138781 56.82171631 482.98742676 C55.81153853 487.23750686 55.21149001 491.03030512 55.4375 495.4375 C60.0048674 495.56320026 64.57118048 495.65279961 69.13989258 495.7121582 C70.6866209 495.73695834 72.23323655 495.77081051 73.77954102 495.81469727 C89.1424117 496.23908596 102.33145459 493.70085531 114.4375 483.4375 C115.15550781 482.83035156 115.87351562 482.22320312 116.61328125 481.59765625 C122.05764778 476.58391758 125.27888522 471.07672428 128.4375 464.4375 C128.75267578 463.78362305 129.06785156 463.12974609 129.39257812 462.45605469 C144.22024765 431.46425587 155.1489417 398.43452728 163.71044922 365.21630859 C164.35403898 362.75649038 165.02657531 360.30865823 165.72265625 357.86328125 C168.82683845 347.32433944 168.82683845 347.32433944 169.4375 336.4375 C168.16232126 333.57751655 168.16232126 333.57751655 165.4375 332.4375 C157.00612038 330.94960948 150.65671447 336.64564872 143.9375 341 C134.2898967 347.18953629 124.72890565 350.84338786 113.1875 350.75 C112.44733643 350.74436035 111.70717285 350.7387207 110.94458008 350.73291016 C97.02977413 350.42834945 85.72798042 345.20701561 74.4375 337.3125 C64.84373863 330.77471484 55.21419208 327.90947159 43.72265625 329.91015625 C35.69920651 331.78942148 29.52114313 335.69129457 22.75390625 340.2421875 C14.28825041 345.83792597 5.74455445 350.00732244 -4.5625 350.4375 C-6.23119141 350.53224609 -6.23119141 350.53224609 -7.93359375 350.62890625 C-24.15519625 351.14361421 -35.98120367 345.35903877 -49.3125 336.75 C-58.62857019 330.73834787 -68.46284473 327.48514859 -79.65625 329.88671875 C-81.29487073 330.39339753 -82.92893258 330.91475842 -84.5625 331.4375 C-87.75566509 331.6552158 -89.49865534 331.45878155 -92.5625 330.4375 C-92.64381463 329.00094146 -92.70183559 327.5630517 -92.75 326.125 C-92.78480469 325.32449219 -92.81960937 324.52398437 -92.85546875 323.69921875 C-92.5625 321.4375 -92.5625 321.4375 -91.38671875 319.75 C-84.30242035 314.65294591 -72.89333087 314.34228301 -64.5625 315.4375 C-53.8423141 317.87434807 -44.48549236 322.00149031 -35.5625 328.4375 C-25.12783499 335.55378808 -15.18142251 338.00319266 -2.5625 336.4375 C5.65941588 334.49907564 12.40524155 330.38703816 19.33496094 325.75195312 C32.34504861 317.07856134 45.44621375 313.16573856 61.06640625 316.125 C71.1316029 318.77664346 79.31763971 323.36875918 87.9375 329.0625 C98.14687084 335.5659269 107.29116449 337.72495955 119.4375 336.4375 C126.70106363 334.71815013 133.06149515 331.22572786 139.4375 327.4375 C140.25083453 284.27761097 125.10435124 240.83182484 99.68798828 206.14453125 C97.57654454 203.2622168 95.51175081 200.34664604 93.4375 197.4375 C89.35785719 198.73905006 89.35785719 198.73905006 85.4375 200.4375 C78.25014422 201.15012734 72.03582895 201.37327732 66.0859375 196.9296875 C61.36602023 192.65715575 57.86691009 188.26873028 57.13671875 181.75390625 C57.11275292 176.1219372 57.46905083 172.38491528 60.4375 167.4375 C60.4375 166.4475 60.4375 165.4575 60.4375 164.4375 C59.13098529 163.06551638 59.13098529 163.06551638 57.31640625 161.87109375 C56.63731201 161.39067627 55.95821777 160.91025879 55.25854492 160.4152832 C54.5132251 159.90698975 53.76790527 159.39869629 53 158.875 C52.23083252 158.34414795 51.46166504 157.8132959 50.66918945 157.26635742 C18.51488315 135.34192417 -20.15216969 119.31997284 -59.5390625 119.26953125 C-60.46737885 119.26620285 -61.39569519 119.26287445 -62.35214233 119.25944519 C-64.30685943 119.25441186 -66.26158502 119.25203574 -68.21630859 119.25219727 C-71.1586782 119.25002131 -74.10066575 119.23185575 -77.04296875 119.21289062 C-124.83926722 119.06291333 -171.47348574 137.22687784 -207.5625 168.4375 Z " fill="#020302" transform="translate(327.5625,1.5625)"/>
<path d="M0 0 C0 0.66 0 1.32 0 2 C5.87951912 3.03149458 9.21596187 2.66658726 15 1 C29.17488942 -0.35623942 38.94378259 5.32978673 50.6328125 12.6484375 C64.08368261 20.9550877 77.35478601 24.05739767 93.125 21.3125 C102.58519297 19.0495967 110.86012552 15.49669207 118.66796875 9.70703125 C127.78018636 3.03694901 137.61878183 -0.4865917 149 1 C158.05318721 3.1644149 164.94557566 7.04278715 172.44384766 12.32543945 C185.00319341 21.03362444 198.96294055 23.25966693 214 22 C225.59787147 19.8058081 235.44908557 13.95689751 245.02734375 7.296875 C249.49455513 4.36001524 252.54390584 3.41541848 258 4 C260.5 5.3125 260.5 5.3125 262 8 C262.11822226 15.96087834 260.05515286 23.68647183 258 31.3125 C257.69094727 32.47547607 257.38189453 33.63845215 257.06347656 34.83666992 C227.84937996 143.44854294 227.84937996 143.44854294 198.07421875 161.14453125 C187.00106394 167.06944575 176.63004228 167.39043186 164.375 167.1875 C162.78256478 167.17242196 161.1901157 167.15873909 159.59765625 167.14648438 C155.7314233 167.11373449 151.86586791 167.06212661 148 167 C148.7052262 159.27569895 150.13708738 151.78304995 151.6875 144.1875 C151.95654151 142.85541994 152.22541863 141.52330666 152.49414062 140.19116211 C154.26096469 131.46661073 156.11516134 122.76233128 158 114.0625 C159.00788491 109.37665471 160.00724026 104.68907274 161 100 C161.1378894 99.35019165 161.27577881 98.7003833 161.41784668 98.03088379 C162.28761874 93.92168741 163.13820512 89.80912484 163.96777344 85.69161987 C164.35935686 83.76448594 164.76532108 81.84029113 165.171875 79.91625977 C168.39234928 64.06865665 168.39234928 64.06865665 164.625 48.875 C160.30879052 43.52775219 154.97042041 40.73631192 148.26171875 39.4921875 C140.89788627 39.01306969 135.6609616 41.38267937 130 46 C125.34963336 51.58043997 123.92015708 57.7783598 122.703125 64.8203125 C122.46747268 66.15952389 122.23170948 67.49871577 121.99584961 68.83789062 C121.87450653 69.5363208 121.75316345 70.23475098 121.62814331 70.9543457 C119.41112248 83.68070011 116.94467908 96.32775654 114.18286133 108.94848633 C112.32256755 117.45172894 110.57334799 125.97129753 108.91186523 134.515625 C106.77740875 145.38545307 104.35525136 156.16584374 102 167 C82.86 167 63.72 167 44 167 C43.96261719 159.224375 43.92523438 151.44875 43.88671875 143.4375 C43.85643673 138.5064884 43.82528723 133.57551279 43.79101562 128.64453125 C43.73672134 120.82081934 43.68560982 112.99717864 43.65356445 105.17333984 C43.62752271 98.86438282 43.5871134 92.55566531 43.53681374 86.24685669 C43.52015106 83.84200015 43.50863307 81.43710219 43.50238609 79.03219604 C43.49273885 75.65923048 43.46467062 72.28687687 43.43237305 68.9140625 C43.43452568 67.42836006 43.43452568 67.42836006 43.4367218 65.91264343 C43.34073898 58.807486 42.05037503 53.52664505 38.4375 47.3125 C33.35996877 42.49535499 27.52065519 39.7307518 20.5 39.3125 C14.30050317 39.63740281 9.68355951 41.99998701 5 46 C0.73209009 51.12149189 -1.10465191 55.97683694 -1.15821838 62.61907959 C-1.1680072 63.54172104 -1.17779602 64.46436249 -1.18788147 65.41496277 C-1.19363693 66.41981216 -1.1993924 67.42466156 -1.20532227 68.45996094 C-1.21522186 69.52368423 -1.22512146 70.58740753 -1.23532104 71.68336487 C-1.26691567 75.20034558 -1.29168554 78.7173398 -1.31640625 82.234375 C-1.33697753 84.67246858 -1.35797404 87.11055861 -1.37937927 89.54864502 C-1.43458196 95.96670658 -1.48399926 102.38480022 -1.53222656 108.80291748 C-1.59128526 116.50305188 -1.65750336 124.20312761 -1.72252655 131.9032135 C-1.82051339 143.60210651 -1.90938509 155.3010371 -2 167 C-21.14 167 -40.28 167 -60 167 C-61.3303125 160.503125 -61.3303125 160.503125 -62.6875 153.875 C-64.55278116 144.81056616 -66.47135266 135.7653369 -68.5625 126.75 C-71.95370956 112.04622212 -74.92748056 97.26198374 -77.5078125 82.39453125 C-77.76887206 80.90533912 -78.03002116 79.41616269 -78.29125977 77.92700195 C-78.79757922 75.0383333 -79.28789902 72.14755345 -79.76928711 69.25463867 C-81.4381352 59.51446137 -83.07897084 50.56865833 -91 44 C-96.90976827 39.96406069 -102.9327119 38.95861134 -110 40 C-115.774442 42.26465091 -121.23487129 45.75964769 -124.13241577 51.39775085 C-127.35263107 61.05652776 -124.59409155 73.18951972 -122.5859375 82.82421875 C-122.333815 84.09054642 -122.0816925 85.35687408 -121.82192993 86.66157532 C-121.15640322 90.00212377 -120.47359928 93.33890212 -119.7869873 96.6751709 C-119.11096985 99.97714059 -118.45312416 103.28272083 -117.79296875 106.58789062 C-115.6989187 117.03405214 -113.56053033 127.47030015 -111.29785156 137.88134766 C-111.02365387 139.1453389 -110.74945618 140.40933014 -110.46694946 141.71162415 C-109.94826344 144.09087865 -109.42527041 146.46920015 -108.89706421 148.84635925 C-107.57275183 154.90063071 -106.55467027 160.82594325 -106 167 C-110.49825874 167.07501586 -114.99617127 167.12900383 -119.49487305 167.16479492 C-121.02032832 167.17973934 -122.54574172 167.20010247 -124.07104492 167.22631836 C-141.16861766 167.51249368 -154.55235662 164.38866487 -167.48046875 152.671875 C-174.09007194 145.66262139 -178.51432331 138.61921031 -182.25 129.75 C-182.94488525 128.13230713 -182.94488525 128.13230713 -183.65380859 126.48193359 C-196.03092705 97.31534789 -206.36649074 67.45546992 -214.27294922 36.77880859 C-214.91653898 34.31899038 -215.58907531 31.87115823 -216.28515625 29.42578125 C-220.47637848 14.6692987 -220.47637848 14.6692987 -220 8 C-218.5 5.3125 -218.5 5.3125 -216 4 C-207.56862038 2.51210948 -201.21921447 8.20814872 -194.5 12.5625 C-181.84227487 20.63816374 -167.9629299 24.08514173 -152.9296875 21.46484375 C-149.90604006 20.75726385 -146.96294309 19.92819968 -144 19 C-143.19175781 18.75636719 -142.38351563 18.51273437 -141.55078125 18.26171875 C-135.96871426 16.31491522 -131.49032117 13.35887544 -126.6875 10 C-117.73456806 3.78478813 -108.10138148 -0.30239671 -97 1 C-96.29746094 1.07089844 -95.59492188 1.14179688 -94.87109375 1.21484375 C-86.68479576 2.51820783 -79.96029937 7.3707556 -73.17578125 11.875 C-64.75235151 17.45056548 -56.26270438 21.56483232 -46 22 C-45.02289063 22.0515625 -44.04578125 22.103125 -43.0390625 22.15625 C-35.30345133 22.37674248 -25.93420378 22.36832633 -19.2890625 17.83203125 C-17.7518042 15.89082351 -17.7518042 15.89082351 -17.21484375 12.62109375 C-15.714061 8.14769952 -13.39679 6.4720265 -9.5625 4.0625 C-8.68368164 3.46598633 -8.68368164 3.46598633 -7.78710938 2.85742188 C-4.9888221 1.01201335 -3.41331232 0 0 0 Z " fill="#B0EBCF" transform="translate(235,330)"/>
<path d="M0 0 C0.70253906 0.07089844 1.40507812 0.14179688 2.12890625 0.21484375 C9.13815991 1.33080721 15.63015036 4.38987796 21 9 C23.31228622 13.4610337 24.14694124 17.9495787 25 22.875 C25.26852944 24.19700368 25.54218022 25.51797685 25.82080078 26.83789062 C26.59453383 30.54995271 27.29701911 34.27388124 28 38 C31.23796812 53.64917803 36.05972167 68.81921502 41 84 C41.21074158 84.64767334 41.42148315 85.29534668 41.63861084 85.96264648 C46.61066478 101.19403528 51.92818002 116.28583573 57.85998535 131.17196655 C58.40066956 132.5297188 58.93738655 133.88905941 59.46960449 135.25015259 C64.03798576 146.88010354 69.99667663 156.39601195 78 166 C64.47 166 50.94 166 37 166 C35.6696875 159.503125 35.6696875 159.503125 34.3125 152.875 C32.44721884 143.81056616 30.52864734 134.7653369 28.4375 125.75 C25.04629044 111.04622212 22.07251944 96.26198374 19.4921875 81.39453125 C19.23112794 79.90533912 18.96997884 78.41616269 18.70874023 76.92700195 C18.20242078 74.0383333 17.71210098 71.14755345 17.23071289 68.25463867 C15.5618648 58.51446137 13.92102916 49.56865833 6 43 C0.09023173 38.96406069 -5.9327119 37.95861134 -13 39 C-18.774442 41.26465091 -24.23487129 44.75964769 -27.13241577 50.39775085 C-30.35263107 60.05652776 -27.59409155 72.18951972 -25.5859375 81.82421875 C-25.333815 83.09054642 -25.0816925 84.35687408 -24.82192993 85.66157532 C-24.15640322 89.00212377 -23.47359928 92.33890212 -22.7869873 95.6751709 C-22.11096985 98.97714059 -21.45312416 102.28272083 -20.79296875 105.58789062 C-18.6989187 116.03405214 -16.56053033 126.47030015 -14.29785156 136.88134766 C-14.02365387 138.1453389 -13.74945618 139.40933014 -13.46694946 140.71162415 C-12.94826344 143.09087865 -12.42527041 145.46920015 -11.89706421 147.84635925 C-10.57275183 153.90063071 -9.55467027 159.82594325 -9 166 C-13.49825874 166.07501586 -17.99617127 166.12900383 -22.49487305 166.16479492 C-24.02032832 166.17973934 -25.54574172 166.20010247 -27.07104492 166.22631836 C-44.16861766 166.51249368 -57.55235662 163.38866487 -70.48046875 151.671875 C-77.09007194 144.66262139 -81.51432331 137.61921031 -85.25 128.75 C-85.94488525 127.13230713 -85.94488525 127.13230713 -86.65380859 125.48193359 C-99.03092705 96.31534789 -109.36649074 66.45546992 -117.27294922 35.77880859 C-117.91653898 33.31899038 -118.58907531 30.87115823 -119.28515625 28.42578125 C-123.47637848 13.6692987 -123.47637848 13.6692987 -123 7 C-121.5 4.3125 -121.5 4.3125 -119 3 C-110.56862038 1.51210948 -104.21921447 7.20814872 -97.5 11.5625 C-84.84227487 19.63816374 -70.9629299 23.08514173 -55.9296875 20.46484375 C-52.90604006 19.75726385 -49.96294309 18.92819968 -47 18 C-46.19175781 17.75636719 -45.38351563 17.51273437 -44.55078125 17.26171875 C-38.96871426 15.31491522 -34.49032117 12.35887544 -29.6875 9 C-20.73456806 2.78478813 -11.10138148 -1.30239671 0 0 Z " fill="#5FD8A7" transform="translate(138,331)"/>
<path d="M0 0 C-3.20770179 2.13846786 -6.40213271 3.29050909 -10 4.5625 C-24.49239168 9.87548812 -37.96181051 16.58279916 -50.875 25.03125 C-54 27 -54 27 -57 28 C-57.73323796 30.01508358 -57.73323796 30.01508358 -58 32 C-57.20335937 32.61875 -57.20335937 32.61875 -56.390625 33.25 C-50.73298596 37.87522316 -46.85843485 42.02107787 -45.58984375 49.37890625 C-45.17840711 56.12013743 -47.07954024 61.53397438 -51 67 C-56.20859094 72.08257664 -61.51687672 75.01965762 -68.8125 75.375 C-75.09397509 75.20724547 -79.47946034 73.47082488 -83.98046875 69.05859375 C-86.56847163 66.16109774 -88.84403219 63.23395171 -91 60 C-108.15936297 78.11798659 -130.29046554 108.77605207 -132.25 134.25 C-132.2180757 138.03409703 -132.2180757 138.03409703 -130.5 141.3125 C-128.20696078 146.94955475 -127.94071834 151.88553084 -129.9140625 157.6875 C-131.86267571 161.91159057 -133.0592444 164.43320936 -137.14453125 166.89453125 C-139.61237731 168.85083393 -139.97309245 169.82522889 -140.46191406 173.00024414 C-140.57248691 176.7945978 -140.57531599 180.57913799 -140.5625 184.375 C-140.85099611 197.1039032 -140.85099611 197.1039032 -143.16699219 200.92578125 C-146.51688639 203.91248827 -150.77853492 204.81256685 -155 206 C-158.06291879 207.75821267 -158.06291879 207.75821267 -160.875 209.75 C-170.95069081 216.28162515 -179.99526576 217.91079122 -192 217 C-196.21919635 216.08126375 -200.04404128 214.71576884 -204 213 C-204.83273438 212.68417969 -205.66546875 212.36835938 -206.5234375 212.04296875 C-208.93876861 210.91157681 -210.27662199 210.03608321 -212 208 C-212.35693359 205.49511719 -212.35693359 205.49511719 -212.2734375 202.546875 C-212.22799805 200.9371582 -212.22799805 200.9371582 -212.18164062 199.29492188 C-210.1503233 162.44726238 -199.14444442 125.52641645 -178 95 C-177.30519531 95.15726562 -176.61039063 95.31453125 -175.89453125 95.4765625 C-169.12286983 96.70112745 -161.61269221 97.50768566 -155.5 93.875 C-150.25903653 89.94980584 -146.38728331 85.55806657 -145 79 C-144.44077753 73.81213614 -144.25887928 69.62752073 -147.125 65.125 C-147.74375 64.09375 -148.3625 63.0625 -149 62 C-142.41921428 43.45086223 -108.07830554 27.14550918 -91.54101562 19.18359375 C-62.14586767 5.49146488 -32.26510887 -0.54665244 0 0 Z " fill="#FC5E7D" transform="translate(257,121)"/>
<path d="M0 0 C3.45332231 1.36526696 4.76645144 2.64565047 6.8125 5.75 C10.16100167 14.76225308 8.81914974 26.33816839 5 35 C1.40050347 42.33939894 -3.20721894 46.29661887 -11 49 C-13.54917954 49.44639766 -16.03512234 49.81357411 -18.6015625 50.09765625 C-19.34032623 50.18185318 -20.07908997 50.26605011 -20.84024048 50.35279846 C-30.4991175 51.36872758 -40.19635528 51.38404201 -49.89941406 51.45629883 C-52.33693943 51.47783425 -54.77368159 51.51714747 -57.2109375 51.55859375 C-58.32171158 51.55876747 -58.32171158 51.55876747 -59.45492554 51.5589447 C-62.38134867 51.61587424 -64.48851913 51.65903396 -66.96337891 53.30883789 C-68.73122747 56.19293751 -68.35068229 58.72696528 -68 62 C-66.78796793 63.76863576 -66.78796793 63.76863576 -65 65 C-61.95761768 65.29958431 -59.12499114 65.42010044 -56.08203125 65.3984375 C-55.19198898 65.40130768 -54.30194672 65.40417786 -53.38493347 65.40713501 C-51.49269987 65.40917892 -49.60044529 65.4036263 -47.70825195 65.39111328 C-44.86814341 65.37530963 -42.02951236 65.39082094 -39.18945312 65.41015625 C-24.32559442 65.427516 -10.73435856 64.11283004 3 58 C4.99302124 57.3127513 6.98967123 56.63484067 9 56 C17.23570404 64.49017804 21.36081268 72.96342029 21.296875 84.83984375 C20.76728767 90.47716155 18.87911554 95.68715928 17 101 C16.67 101.99 16.34 102.98 16 104 C11.78265512 103.38221256 7.8694202 102.42523032 3.8125 101.125 C-14.11465136 95.52023598 -31.76527891 91.8841325 -50.58984375 91.796875 C-51.57384659 91.79117493 -52.55784943 91.78547485 -53.57167053 91.77960205 C-55.64485623 91.77021384 -57.71805644 91.76364289 -59.79125977 91.75976562 C-62.89822811 91.7501219 -66.0045161 91.71906377 -69.11132812 91.6875 C-85.86188269 91.59750116 -101.63615808 93.45077713 -117.8125 97.875 C-118.77244873 98.13039551 -119.73239746 98.38579102 -120.72143555 98.64892578 C-127.46425495 100.48019684 -134.02881952 102.6153976 -140.55078125 105.1171875 C-143 106 -143 106 -145 106 C-145.70832942 96.6146352 -142.71896872 88.07440801 -136.75 80.77734375 C-125.22386533 69.07111322 -108.46242022 66.96099662 -92.8125 66.5390625 C-89.32324837 65.87028927 -88.12218083 64.80950654 -86 62 C-85.41630557 58.41538144 -85.41630557 58.41538144 -86 55 C-93.60415566 49.93056289 -107.2356401 53.26416169 -116 54 C-116.59155932 46.01394924 -114.80949975 39.31376894 -109.5625 33.125 C-108.716875 32.42375 -107.87125 31.7225 -107 31 C-106.236875 30.319375 -105.47375 29.63875 -104.6875 28.9375 C-98.1426117 24.21909215 -91.40592257 22.06200573 -83.5625 20.4375 C-82.57040527 20.22625488 -81.57831055 20.01500977 -80.55615234 19.79736328 C-71.04391276 17.85624168 -61.47663574 16.7477748 -51.8359375 15.671875 C-36.09109004 13.90141117 -20.97506742 11.68053325 -8.31640625 1.35546875 C-5.3523389 -0.3789855 -3.38319467 -0.31173067 0 0 Z " fill="#D7D7F6" transform="translate(318,15)"/>
<path d="M0 0 C6.70048579 4.63360207 10.06453143 12.66909044 11.9375 20.33984375 C13.15700802 28.91373178 10.77882011 36.30655315 7.9375 44.33984375 C7.6075 45.32984375 7.2775 46.31984375 6.9375 47.33984375 C2.72015512 46.72205631 -1.1930798 45.76507407 -5.25 44.46484375 C-22.88746308 38.95064818 -40.28373481 35.39906702 -58.7890625 35.0234375 C-59.66275482 35.0026564 -60.53644714 34.98187531 -61.43661499 34.96046448 C-64.18684165 34.89585749 -66.93715135 34.83650402 -69.6875 34.77734375 C-71.56901849 34.73407369 -73.45052904 34.69045693 -75.33203125 34.64648438 C-79.90877232 34.54026939 -84.48559562 34.43876086 -89.0625 34.33984375 C-88.32457234 22.62330701 -88.32457234 22.62330701 -85.8125 17.96484375 C-85.41546875 17.19398437 -85.0184375 16.423125 -84.609375 15.62890625 C-79.93290203 8.70867099 -79.93290203 8.70867099 -75.9458313 7.92245483 C-73.30736433 7.81054569 -70.71321881 7.8571175 -68.07421875 7.95703125 C-67.0982222 7.97122101 -66.12222565 7.98541077 -65.11665344 8.00003052 C-61.99344638 8.04778146 -58.87236101 8.12850674 -55.75 8.21484375 C-28.92590455 9.16374899 -28.92590455 9.16374899 -4.046875 0.09375 C-2.0625 -0.66015625 -2.0625 -0.66015625 0 0 Z " fill="#EBE9FB" transform="translate(327.0625,71.66015625)"/>
<path d="M0 0 C6.96668369 4.28914224 12.17779518 9.13704005 14.14453125 17.3203125 C14.60970041 24.32170469 12.21756321 30.69463718 7.7109375 36.01171875 C1.09768713 42.33950507 -6.99918838 44.53497599 -15.98046875 44.7578125 C-25.09372158 44.46866115 -32.8846845 42.31493745 -39.484375 35.68359375 C-44.54472581 30.06233658 -46.41166116 25.50031207 -46.23046875 17.87890625 C-45.28047624 11.39718653 -40.79662929 6.5553439 -35.76953125 2.640625 C-25.60228538 -4.3726997 -11.2740966 -5.49300107 0 0 Z " fill="#F4F2F3" transform="translate(352.85546875,246.6796875)"/>
<path d="M0 0 C5.15816213 3.95367151 9.41661638 8.67566889 10.3125 15.31640625 C10.66261418 22.4828058 9.04155066 27.50042759 4.33984375 32.91015625 C-2.81584812 39.83075352 -10.7405636 42.19306449 -20.5625 42.5 C-29.5584474 42.22601175 -36.92269059 39.95645008 -43.52734375 33.6796875 C-48.52473969 27.97973988 -49.73542798 22.42918753 -49.44140625 14.8984375 C-48.47627859 8.56105057 -45.10440059 4.65839968 -40.25 0.6875 C-28.11229485 -7.57694859 -12.55706573 -7.51535663 0 0 Z " fill="#F4F3F3" transform="translate(195,249)"/>
<path d="M0 0 C7.03040675 5.45870524 6.99198619 20.5461667 8.38964844 28.78295898 C10.74099147 42.52701536 13.73067681 56.13378158 16.67695618 69.75993347 C17.49676709 73.55339203 18.31440641 77.34731799 19.13223267 81.14120483 C19.74032642 83.95523432 20.35278273 86.76828958 20.96557617 89.58129883 C21.34699849 91.34583216 21.72827109 93.11039787 22.109375 94.875 C22.28521622 95.67624802 22.46105743 96.47749603 22.64222717 97.30302429 C23.69278504 102.19055631 24.44677036 107.03083763 25 112 C20.05 112 15.1 112 10 112 C4.00306411 90.78007301 -0.08093013 69.05341554 -4.32177734 47.42675781 C-4.94451733 44.28032929 -5.5796693 41.13676026 -6.21939087 37.99375916 C-6.7856916 35.20272298 -7.34371587 32.41006616 -7.90039062 29.61709595 C-8.17100397 28.26793691 -8.44482893 26.9194173 -8.72216797 25.57162476 C-12.74301509 5.99798595 -12.74301509 5.99798595 -9.4375 0.3125 C-5.92324837 -1.57978934 -3.78503808 -1.03228311 0 0 Z " fill="#00CA8B" transform="translate(135,385)"/>
<path d="M0 0 C2.375 1.375 2.375 1.375 4 4 C4.87737251 11.50539905 3.31550371 18.86713093 1.8125 26.1875 C1.47629639 27.88011963 1.47629639 27.88011963 1.13330078 29.60693359 C-0.569844 38.10364122 -2.39627193 46.57312476 -4.26879883 55.03393555 C-5.4035202 60.17559998 -6.45271321 65.31494868 -7.375 70.5 C-8.88663983 78.82280766 -10.76087161 87.06313957 -12.625 95.3125 C-12.78329285 96.01487793 -12.94158569 96.71725586 -13.10467529 97.44091797 C-13.55984755 99.45719483 -14.01760328 101.47286336 -14.4765625 103.48828125 C-14.74549316 104.66946533 -15.01442383 105.85064941 -15.29150391 107.06762695 C-16 110 -16 110 -17 113 C-21.95 113 -26.9 113 -32 113 C-31.19951324 104.97434053 -29.46043363 97.13457356 -27.8125 89.25 C-27.49523571 87.71919979 -27.17818142 86.18835604 -26.86132812 84.6574707 C-24.73042662 74.38629888 -22.5158595 64.13446166 -20.27954102 53.88574219 C-18.79790916 46.99943725 -17.43298686 40.09980199 -16.140625 33.17578125 C-15.90430359 31.91111275 -15.90430359 31.91111275 -15.66320801 30.62089539 C-14.88487499 26.4433472 -14.11610553 22.2642779 -13.359375 18.08276367 C-13.07821176 16.55515981 -12.79696574 15.02757118 -12.515625 13.5 C-12.39189514 12.80026566 -12.26816528 12.10053131 -12.14068604 11.3795929 C-11.50948116 7.97888591 -10.92096419 4.91148817 -9 2 C-5.50875983 -0.32749345 -4.10777749 -0.50299316 0 0 Z " fill="#5ED5A4" transform="translate(384,384)"/>
<path d="M0 0 C4.83296556 3.46640289 8.84548932 8.80244373 10.265625 14.625 C11.33564716 21.9539189 9.38439651 27.54490872 5.265625 33.625 C1.09719113 38.23021737 -3.2857639 41.21592337 -9.56640625 41.9609375 C-17.25343189 42.06168489 -22.72284268 41.32313136 -28.484375 36.01171875 C-34.19953404 29.815717 -35.22381218 23.88695793 -35.0390625 15.59375 C-34.48792854 10.22372684 -32.8126999 6.56881953 -28.86328125 2.875 C-19.65097407 -4.36946084 -10.50015927 -5.8114089 0 0 Z " fill="#040203" transform="translate(426.734375,259.375)"/>
<path d="M0 0 C5.87698575 3.25267136 8.89405573 7.70991697 12.125 13.4375 C13.89425789 20.69145734 12.90275981 26.16373712 9.3046875 32.69921875 C6.29209639 37.15755082 2.78430363 39.98284819 -2 42.375 C-9.16567212 43.75301387 -15.99859036 44.08962819 -22.46484375 40.33203125 C-27.42711666 36.6293287 -31.08737789 32.16189716 -32.25 26 C-32.98945516 18.92959309 -32.82773139 13.0888317 -28.94921875 6.9765625 C-21.42918834 -1.77087517 -10.59359716 -4.77593336 0 0 Z " fill="#040203" transform="translate(311.25,145)"/>
<path d="M0 0 C4.69775246 3.55800239 9.58940095 8.51225652 10.8515625 14.40234375 C11.84374984 22.07801526 10.38191689 28.08598427 5.8515625 34.40234375 C0.64297156 39.48492039 -4.66531422 42.42200137 -11.9609375 42.77734375 C-18.24060579 42.60963748 -22.59471545 40.86036418 -27.12890625 36.49609375 C-32.90826638 30.10900709 -34.56685869 26.03816488 -34.3984375 17.375 C-33.8362663 10.6904331 -30.69454944 6.16493721 -26.1484375 1.40234375 C-18.61133969 -3.92877421 -8.08033688 -4.67196433 0 0 Z " fill="#040203" transform="translate(200.1484375,153.59765625)"/>
<path d="M0 0 C6.91586252 4.03425314 10.32243021 8.16537373 13 15.75 C14.27634575 22.34615486 12.8412247 27.65949233 9.6328125 33.48046875 C6.39288751 37.98380946 2.24077977 41.00307341 -3 42.75 C-10.44231462 43.41195937 -17.22045388 43.91640113 -23.38671875 39.2421875 C-28.12949479 34.85540676 -31.55308685 30.51758177 -32.3359375 23.91796875 C-32.43628519 16.26144026 -31.75551029 10.65363947 -26.31640625 5 C-18.89370785 -1.64052158 -9.64938046 -3.89809409 0 0 Z " fill="#040203" transform="translate(115,250.25)"/>
<path d="M0 0 C2.15911865 1.37750244 2.15911865 1.37750244 4 4 C4.59028006 7.48370497 4.50455502 10.93463131 4.45410156 14.45996094 C4.45468567 15.52368423 4.45526978 16.58740753 4.45587158 17.68336487 C4.45308401 21.20069974 4.42195886 24.71718809 4.390625 28.234375 C4.38316504 30.6724603 4.37747095 33.11055159 4.37347412 35.54864502 C4.35819867 41.96690412 4.31889977 48.38480138 4.2746582 54.80291748 C4.23374707 61.35163477 4.21547196 67.90041051 4.1953125 74.44921875 C4.15240787 87.29963818 4.08413295 100.14978901 4 113 C-0.62 113 -5.24 113 -10 113 C-10.09259511 98.8573041 -10.16371192 84.71468006 -10.20724869 70.57174301 C-10.22814196 64.00491394 -10.25649195 57.43829192 -10.30175781 50.87158203 C-10.34515259 44.5368165 -10.36912399 38.20225039 -10.37950897 31.86734772 C-10.38691172 29.44795847 -10.40136716 27.02858039 -10.42292023 24.60927582 C-10.45186866 21.22592908 -10.45595947 17.84341117 -10.45410156 14.45996094 C-10.46848267 13.45511154 -10.48286377 12.45026215 -10.49768066 11.41496277 C-10.45737293 4.651568 -10.45737293 4.651568 -8.15911865 1.37750244 C-5.19169821 -0.51569083 -3.45432379 -0.57572063 0 0 Z " fill="#5FD9A7" transform="translate(259,384)"/>
<path d="M0 0 C4.52341995 3.39256496 5.75089512 6.58721217 7 12 C8.16475062 13.37771762 8.16475062 13.37771762 11.375 13.3125 C14.93806442 13.361692 14.93806442 13.361692 16.8125 11.4375 C18.15431793 8.87219724 18.15431793 8.87219724 19 5.375 C20 2 20 2 23 0 C26.53061346 -0.45071661 28.29365563 -0.49051692 31.25 1.5625 C33.40758333 4.56770535 34.07715039 7.44043721 35 11 C36.94332332 13.37994368 36.94332332 13.37994368 40.5 13.25 C44.05667668 13.37994368 44.05667668 13.37994368 46 11 C46.52704163 9.12911103 46.52704163 9.12911103 46.875 7.0625 C47.52046457 4.32672323 47.86317682 3.15636934 49.75 1 C52.76616732 -0.34051881 54.73241094 -0.4765234 58 0 C60.375 1.375 60.375 1.375 62 4 C62.99064488 9.24023365 62.58813138 13.68525004 59.875 18.3125 C56.53411873 22.99730518 52.39458624 26.82691579 47 29 C41.14409251 29.65831117 35.09483359 30.20407449 30 26.875 C29.01 26.25625 28.02 25.6375 27 25 C24.31121194 25.62529955 22.58167476 26.64892236 20.24609375 28.05859375 C14.93931684 30.28282547 7.89997547 30.07594631 2.546875 28.08984375 C-3.20277896 24.67735829 -8.30801761 19.61411298 -10 13 C-10.51276109 8.61392056 -10.78796472 5.24255975 -8.375 1.4375 C-5.23101795 -0.46543651 -3.61853729 -0.6646293 0 0 Z " fill="#040202" transform="translate(230,239)"/>
<path d="M0 0 C-0.46019531 0.42410156 -0.92039063 0.84820312 -1.39453125 1.28515625 C-6.19743125 6.41526111 -6.58179006 13.40578119 -6.4296875 20.08984375 C-5.76904506 24.56419482 -3.76639618 27.52104723 -1 31 C-0.34 31.99 0.32 32.98 1 34 C0.34 34.66 -0.32 35.32 -1 36 C-1.39764263 37.98821313 -1.73775349 39.98944339 -2 42 C-2.33 41.01 -2.66 40.02 -3 39 C-7.62 39 -12.24 39 -17 39 C-17.33 39.99 -17.66 40.98 -18 42 C-18.28875 40.865625 -18.5775 39.73125 -18.875 38.5625 C-19.24625 37.386875 -19.6175 36.21125 -20 35 C-27.59530412 31.20234794 -40.77399805 34.30936116 -49 35 C-49.59155932 27.01394924 -47.80949975 20.31376894 -42.5625 14.125 C-41.716875 13.42375 -40.87125 12.7225 -40 12 C-39.236875 11.319375 -38.47375 10.63875 -37.6875 9.9375 C-30.67594533 4.88265826 -23.60094433 2.91619867 -15.25 1.1875 C-14.22261719 0.95869141 -13.19523437 0.72988281 -12.13671875 0.49414062 C-3.85550564 -1.27115057 -3.85550564 -1.27115057 0 0 Z " fill="#BFBFEC" transform="translate(251,34)"/>
<path d="M0 0 C5.39936324 3.03444214 9.30853319 7.70760264 12.3125 13.0625 C13.08946964 16.42936842 13.30575843 19.05393255 12.875 22.5 C10.40006641 25.92123173 8.99236219 27.29477021 4.8125 28.0625 C1.12693743 27.35675398 0.0571333 26.53939995 -2.125 23.5 C-2.84427295 21.18234271 -3.5159893 18.84904126 -4.125 16.5 C-5.94703581 14.27033253 -5.94703581 14.27033253 -8.5625 14.1875 C-11.09082165 14.31099153 -11.09082165 14.31099153 -12.8125 15.5625 C-14.36277869 17.62322494 -14.36277869 17.62322494 -15.0625 21 C-16.125 24.5 -16.125 24.5 -17.8125 26.5 C-21.26511307 27.99302187 -23.5476815 27.47563232 -27.125 26.5 C-29.8486771 24.21562566 -30.08783614 22.77607436 -30.5625 19.25 C-29.74681993 12.25845653 -26.58539092 6.96759257 -21.125 2.5 C-14.38165023 -2.01035456 -7.59516065 -3.2843938 0 0 Z " fill="#060304" transform="translate(203.125,214.5)"/>
<path d="M0 0 C4.80039063 3.50272405 9.55832785 8.49363942 10.921875 14.40234375 C11.47784869 18.85013328 11.45330042 20.66772626 8.796875 24.33984375 C5.921875 26.40234375 5.921875 26.40234375 2.859375 26.96484375 C-0.82618757 26.25909773 -1.8959917 25.4417437 -4.078125 22.40234375 C-4.79739795 20.08468646 -5.4691143 17.75138501 -6.078125 15.40234375 C-7.90016081 13.17267628 -7.90016081 13.17267628 -10.515625 13.08984375 C-13.04394665 13.21333528 -13.04394665 13.21333528 -14.765625 14.46484375 C-16.31590369 16.52556869 -16.31590369 16.52556869 -17.015625 19.90234375 C-18.078125 23.40234375 -18.078125 23.40234375 -19.765625 25.40234375 C-23.21823807 26.89536562 -25.5008065 26.37797607 -29.078125 25.40234375 C-31.8018021 23.11796941 -32.04096114 21.67841811 -32.515625 18.15234375 C-31.60784798 10.37139784 -28.03623029 5.67103993 -22.015625 0.8125 C-15.2689049 -4.09791524 -7.20474628 -4.04906741 0 0 Z " fill="#060304" transform="translate(328.078125,215.59765625)"/>
<path d="M0 0 C2 1.625 2 1.625 3 4 C2.87988224 7.42335626 2.60726153 9.95416069 0.875 12.9375 C-2.18452459 14.6712306 -4.56817525 14.42145216 -8 14 C-10.4375 12.4375 -10.4375 12.4375 -12 10 C-12.5625 6.5 -12.5625 6.5 -12 3 C-8.33340589 -1.4443565 -5.38867153 -1.59664341 0 0 Z " fill="#E4E2F3" transform="translate(95,189)"/>
<path d="M0 0 C2.9375 2.0625 2.9375 2.0625 5 5 C5.06641554 8.85210127 4.87229157 10.99848005 2.3125 13.9375 C-0.73602877 15.33817538 -2.67926952 15.4842732 -6 15 C-8.375 13.4375 -8.375 13.4375 -10 11 C-10.56783945 7.02512383 -10.62340519 4.93510779 -8.375 1.5625 C-5.24316508 -0.49791771 -3.68455227 -0.6767545 0 0 Z " fill="#E4E2F3" transform="translate(417,271)"/>
<path d="M0 0 C2.9375 2.0625 2.9375 2.0625 5 5 C5.06641554 8.85210127 4.87229157 10.99848005 2.3125 13.9375 C-0.73602877 15.33817538 -2.67926952 15.4842732 -6 15 C-8.375 13.4375 -8.375 13.4375 -10 11 C-10.56783945 7.02512383 -10.62340519 4.93510779 -8.375 1.5625 C-5.24316508 -0.49791771 -3.68455227 -0.6767545 0 0 Z " fill="#E4E2F4" transform="translate(304,158)"/>
<path d="M0 0 C1.9375 1.125 1.9375 1.125 3 3 C3.49573337 6.89504791 3.58016848 9.09493717 1.4375 12.4375 C-1.96719488 14.61999672 -4.03430012 14.63734462 -8 14 C-10.5 11.9375 -10.5 11.9375 -12 9 C-12 5.19715329 -11.7968187 2.98069994 -9.375 0 C-5.91616747 -1.45635054 -3.58701629 -0.91305869 0 0 Z " fill="#E6E4F5" transform="translate(411,174)"/>
<path d="M0 0 C2.69500656 2.41859563 3.80636871 4.00763965 4.5 7.5625 C3.8187589 10.88355037 2.71681469 11.99813654 0 14 C-2.9375 15.0625 -2.9375 15.0625 -6 15 C-9.40406682 12.55795207 -10.7998726 11.08958249 -11.5625 6.9375 C-11 4 -11 4 -9.4375 1.625 C-6.04129157 -0.63913895 -3.99900698 -0.64269755 0 0 Z " fill="#E6E4F5" transform="translate(192,166)"/>
<path d="M0 0 C2.4375 1.625 2.4375 1.625 4 4 C4.60024477 7.60146865 4.45562482 9.27859404 2.5 12.375 C-1.26897129 14.82483134 -3.54334931 14.5659239 -8 14 C-10.6923481 11.81246717 -10.93936827 10.41576045 -11.4375 7 C-11 4 -11 4 -9.4375 1.625 C-6.06489221 -0.62340519 -3.97487617 -0.56783945 0 0 Z " fill="#E8E6F7" transform="translate(109,264)"/>
</svg>
